<svg width="50" height="50" viewBox="0 0 50 50" fill="none" xmlns="http://www.w3.org/2000/svg">
<mask id="path-1-inside-1" fill="white">
<path d="M46.6351 37.5268C43.9503 42.1638 39.8468 45.8154 34.9294 47.9436C30.0121 50.0717 24.5411 50.5636 19.3229 49.3469C14.1048 48.1302 9.41565 45.2691 5.9467 41.1855C2.47774 37.102 0.412551 32.0119 0.0555525 26.6657C-0.301446 21.3195 1.06864 16 3.96384 11.4915C6.85905 6.98292 11.1262 3.52382 16.1362 1.62409C21.1462 -0.275634 26.634 -0.51547 31.7907 0.939942C36.9474 2.39535 41.5 5.469 44.7775 9.70779L37.2228 15.5492C35.1973 12.9295 32.3837 11.03 29.1968 10.1305C26.0099 9.23101 22.6183 9.37924 19.522 10.5533C16.4257 11.7274 13.7886 13.8651 11.9993 16.6515C10.21 19.4379 9.36329 22.7254 9.58392 26.0294C9.80455 29.3335 11.0809 32.4792 13.2247 35.0029C15.3686 37.5267 18.2666 39.2948 21.4915 40.0468C24.7164 40.7987 28.0975 40.4947 31.1365 39.1795C34.1756 37.8643 36.7116 35.6075 38.3709 32.7418L46.6351 37.5268Z"/>
</mask>
<path d="M46.6351 37.5268C43.9503 42.1638 39.8468 45.8154 34.9294 47.9436C30.0121 50.0717 24.5411 50.5636 19.3229 49.3469C14.1048 48.1302 9.41565 45.2691 5.9467 41.1855C2.47774 37.102 0.412551 32.0119 0.0555525 26.6657C-0.301446 21.3195 1.06864 16 3.96384 11.4915C6.85905 6.98292 11.1262 3.52382 16.1362 1.62409C21.1462 -0.275634 26.634 -0.51547 31.7907 0.939942C36.9474 2.39535 41.5 5.469 44.7775 9.70779L37.2228 15.5492C35.1973 12.9295 32.3837 11.03 29.1968 10.1305C26.0099 9.23101 22.6183 9.37924 19.522 10.5533C16.4257 11.7274 13.7886 13.8651 11.9993 16.6515C10.21 19.4379 9.36329 22.7254 9.58392 26.0294C9.80455 29.3335 11.0809 32.4792 13.2247 35.0029C15.3686 37.5267 18.2666 39.2948 21.4915 40.0468C24.7164 40.7987 28.0975 40.4947 31.1365 39.1795C34.1756 37.8643 36.7116 35.6075 38.3709 32.7418L46.6351 37.5268Z" stroke="#006BFF" stroke-width="2.29008" mask="url(#path-1-inside-1)"/>
<circle cx="24.8092" cy="24.8092" r="10.687" fill="#94C0FD"/>
</svg>
