<svg width="712" height="712" viewBox="0 0 712 712" fill="none" xmlns="http://www.w3.org/2000/svg">
<circle cx="356" cy="356" r="356" fill="#C4C4C4" fill-opacity="0.09"/>
<path d="M203.832 291.832H455.755C485.1 291.832 508.888 315.621 508.888 344.965V419.168H256.965C227.62 419.168 203.832 395.379 203.832 366.035V291.832Z" stroke="#3864FF" stroke-width="3.66434"/>
<path d="M409.5 383.5H566C576.217 383.5 584.5 391.783 584.5 402V434C584.5 444.217 576.217 452.5 566 452.5H428C417.783 452.5 409.5 444.217 409.5 434V383.5Z" fill="white" stroke="#0F17DE" stroke-width="3"/>
<path d="M436 246.5H610C620.217 246.5 628.5 254.783 628.5 265V297C628.5 307.217 620.217 315.5 610 315.5H417.5V265C417.5 254.783 425.783 246.5 436 246.5Z" fill="white" stroke="#BD00FF" stroke-width="3"/>
<path d="M47 270.5H197C207.217 270.5 215.5 278.783 215.5 289V339.5H47C36.7827 339.5 28.5 331.217 28.5 321V289C28.5 278.783 36.7827 270.5 47 270.5Z" fill="white" stroke="#FFD336" stroke-width="3"/>
<path d="M463.207 420.945C463.159 421.984 462.879 422.903 462.366 423.703C461.854 424.496 461.132 425.111 460.203 425.549C459.28 425.986 458.224 426.205 457.034 426.205C455.072 426.205 453.527 425.566 452.399 424.288C451.271 423.009 450.708 421.205 450.708 418.874V418.135C450.708 416.672 450.96 415.394 451.466 414.3C451.979 413.2 452.714 412.352 453.671 411.757C454.628 411.156 455.735 410.855 456.993 410.855C458.805 410.855 460.261 411.333 461.361 412.291C462.462 413.241 463.087 414.553 463.238 416.228H459.649C459.622 415.319 459.393 414.666 458.962 414.27C458.531 413.873 457.875 413.675 456.993 413.675C456.098 413.675 455.441 414.01 455.024 414.68C454.607 415.35 454.389 416.419 454.368 417.889V418.945C454.368 420.538 454.566 421.676 454.963 422.36C455.366 423.043 456.057 423.385 457.034 423.385C457.861 423.385 458.494 423.19 458.931 422.801C459.369 422.411 459.601 421.792 459.628 420.945H463.207ZM468.129 416.095C468.867 415.165 469.811 414.7 470.959 414.7C472.183 414.7 473.105 415.062 473.728 415.787C474.35 416.512 474.667 417.582 474.681 418.997V426H471.215V419.079C471.215 418.491 471.096 418.06 470.856 417.787C470.617 417.506 470.21 417.366 469.636 417.366C468.925 417.366 468.423 417.592 468.129 418.043V426H464.673V410.25H468.129V416.095ZM481.972 426.205C480.27 426.205 478.892 425.699 477.839 424.688C476.787 423.669 476.26 422.346 476.26 420.719V420.432C476.26 419.297 476.469 418.296 476.886 417.428C477.31 416.56 477.925 415.89 478.731 415.418C479.538 414.939 480.495 414.7 481.603 414.7C483.161 414.7 484.392 415.186 485.294 416.156C486.196 417.12 486.647 418.467 486.647 420.196V421.54H479.777C479.9 422.162 480.17 422.65 480.587 423.006C481.004 423.361 481.544 423.539 482.208 423.539C483.301 423.539 484.156 423.156 484.771 422.391L486.35 424.257C485.919 424.852 485.308 425.327 484.515 425.682C483.729 426.031 482.881 426.205 481.972 426.205ZM481.582 417.366C480.57 417.366 479.969 418.036 479.777 419.376H483.264V419.109C483.277 418.556 483.137 418.128 482.843 417.828C482.549 417.52 482.129 417.366 481.582 417.366ZM492.738 423.539C493.224 423.539 493.6 423.409 493.866 423.149C494.133 422.883 494.263 422.514 494.256 422.042H497.496C497.496 423.259 497.059 424.257 496.184 425.036C495.315 425.815 494.194 426.205 492.82 426.205C491.207 426.205 489.936 425.699 489.006 424.688C488.076 423.676 487.611 422.274 487.611 420.483V420.34C487.611 419.219 487.816 418.231 488.227 417.376C488.644 416.515 489.242 415.855 490.021 415.397C490.8 414.933 491.723 414.7 492.79 414.7C494.232 414.7 495.377 415.1 496.225 415.9C497.072 416.7 497.496 417.783 497.496 419.15H494.256C494.256 418.576 494.116 418.135 493.835 417.828C493.555 417.52 493.179 417.366 492.708 417.366C491.812 417.366 491.289 417.937 491.139 419.079C491.091 419.441 491.067 419.94 491.067 420.576C491.067 421.69 491.2 422.462 491.467 422.893C491.733 423.324 492.157 423.539 492.738 423.539ZM503.413 421.868L502.438 422.842V426H498.983V410.24H502.438V418.607L502.787 418.146L505.392 414.905H509.534L505.648 419.468L509.791 426H505.833L503.413 421.868ZM519.316 426H515.851V414.905H519.316V426ZM515.646 412.044C515.646 411.552 515.823 411.149 516.179 410.834C516.534 410.52 516.996 410.363 517.563 410.363C518.13 410.363 518.592 410.52 518.947 410.834C519.303 411.149 519.48 411.552 519.48 412.044C519.48 412.537 519.303 412.94 518.947 413.254C518.592 413.569 518.13 413.726 517.563 413.726C516.996 413.726 516.534 413.569 516.179 413.254C515.823 412.94 515.646 412.537 515.646 412.044ZM524.628 414.905L524.741 416.208C525.506 415.203 526.562 414.7 527.909 414.7C529.064 414.7 529.926 415.045 530.493 415.736C531.067 416.426 531.365 417.465 531.385 418.853V426H527.919V418.997C527.919 418.436 527.807 418.026 527.581 417.766C527.355 417.5 526.945 417.366 526.351 417.366C525.674 417.366 525.171 417.633 524.843 418.166V426H521.388V414.905H524.628ZM539.117 422.883C539.117 422.589 538.963 422.353 538.655 422.175C538.348 421.998 537.763 421.813 536.902 421.622C536.041 421.43 535.33 421.181 534.769 420.873C534.208 420.559 533.781 420.179 533.487 419.735C533.193 419.291 533.046 418.781 533.046 418.207C533.046 417.188 533.467 416.351 534.308 415.695C535.148 415.032 536.249 414.7 537.609 414.7C539.072 414.7 540.248 415.032 541.137 415.695C542.025 416.358 542.47 417.229 542.47 418.31H539.004C539.004 417.421 538.536 416.977 537.599 416.977C537.237 416.977 536.933 417.079 536.687 417.284C536.44 417.482 536.317 417.732 536.317 418.033C536.317 418.34 536.468 418.59 536.769 418.781C537.069 418.973 537.548 419.13 538.204 419.253C538.867 419.376 539.448 419.523 539.947 419.694C541.615 420.268 542.449 421.297 542.449 422.78C542.449 423.792 541.998 424.616 541.096 425.251C540.2 425.887 539.038 426.205 537.609 426.205C536.659 426.205 535.812 426.034 535.066 425.692C534.321 425.351 533.74 424.886 533.323 424.298C532.906 423.71 532.698 423.091 532.698 422.442H535.928C535.941 422.955 536.112 423.331 536.44 423.57C536.769 423.802 537.189 423.918 537.702 423.918C538.173 423.918 538.525 423.823 538.758 423.631C538.997 423.44 539.117 423.19 539.117 422.883Z" fill="black"/>
<path d="M459.829 285.032C459.829 284.505 459.641 284.095 459.265 283.801C458.896 283.507 458.243 283.203 457.306 282.889C456.37 282.574 455.604 282.27 455.009 281.976C453.075 281.026 452.107 279.72 452.107 278.059C452.107 277.232 452.347 276.504 452.825 275.875C453.311 275.239 453.994 274.747 454.876 274.398C455.758 274.043 456.749 273.865 457.85 273.865C458.923 273.865 459.883 274.057 460.731 274.439C461.585 274.822 462.249 275.369 462.72 276.08C463.192 276.784 463.428 277.591 463.428 278.5H459.839C459.839 277.892 459.651 277.42 459.275 277.085C458.906 276.75 458.403 276.583 457.768 276.583C457.125 276.583 456.616 276.726 456.24 277.013C455.871 277.293 455.686 277.652 455.686 278.09C455.686 278.473 455.891 278.821 456.301 279.136C456.711 279.443 457.433 279.765 458.465 280.1C459.497 280.428 460.345 280.783 461.008 281.166C462.621 282.096 463.428 283.377 463.428 285.011C463.428 286.317 462.936 287.342 461.951 288.087C460.967 288.833 459.617 289.205 457.901 289.205C456.691 289.205 455.594 288.99 454.609 288.559C453.632 288.122 452.894 287.527 452.395 286.775C451.902 286.016 451.656 285.145 451.656 284.16H455.266C455.266 284.96 455.471 285.551 455.881 285.934C456.298 286.31 456.971 286.498 457.901 286.498C458.496 286.498 458.964 286.372 459.306 286.119C459.654 285.859 459.829 285.497 459.829 285.032ZM468.76 289H465.294V273.25H468.76V289ZM477.147 289C477.024 288.774 476.915 288.443 476.819 288.005C476.184 288.805 475.295 289.205 474.153 289.205C473.107 289.205 472.219 288.891 471.487 288.262C470.756 287.626 470.39 286.83 470.39 285.873C470.39 284.669 470.834 283.76 471.723 283.145C472.612 282.53 473.904 282.222 475.599 282.222H476.666V281.638C476.666 280.619 476.225 280.11 475.343 280.11C474.522 280.11 474.112 280.513 474.112 281.32H470.657C470.657 280.247 471.111 279.375 472.021 278.705C472.937 278.035 474.102 277.7 475.517 277.7C476.932 277.7 478.05 278.045 478.87 278.736C479.69 279.426 480.111 280.373 480.131 281.576V286.488C480.145 287.506 480.302 288.286 480.603 288.826V289H477.147ZM474.984 286.744C475.415 286.744 475.77 286.652 476.05 286.467C476.337 286.283 476.542 286.074 476.666 285.842V284.068H475.661C474.458 284.068 473.856 284.608 473.856 285.688C473.856 286.002 473.962 286.259 474.174 286.457C474.386 286.648 474.656 286.744 474.984 286.744ZM486.745 286.539C487.23 286.539 487.606 286.409 487.873 286.149C488.14 285.883 488.27 285.514 488.263 285.042H491.503C491.503 286.259 491.065 287.257 490.19 288.036C489.322 288.815 488.201 289.205 486.827 289.205C485.214 289.205 483.942 288.699 483.013 287.688C482.083 286.676 481.618 285.274 481.618 283.483V283.34C481.618 282.219 481.823 281.231 482.233 280.376C482.65 279.515 483.249 278.855 484.028 278.397C484.807 277.933 485.73 277.7 486.796 277.7C488.239 277.7 489.384 278.1 490.231 278.9C491.079 279.7 491.503 280.783 491.503 282.15H488.263C488.263 281.576 488.123 281.135 487.842 280.828C487.562 280.52 487.186 280.366 486.714 280.366C485.819 280.366 485.296 280.937 485.146 282.079C485.098 282.441 485.074 282.94 485.074 283.576C485.074 284.69 485.207 285.462 485.474 285.893C485.74 286.324 486.164 286.539 486.745 286.539ZM497.419 284.868L496.445 285.842V289H492.99V273.24H496.445V281.607L496.794 281.146L499.398 277.905H503.541L499.655 282.468L503.797 289H499.839L497.419 284.868ZM516.389 281.033L515.251 280.951C514.164 280.951 513.467 281.292 513.159 281.976V289H509.704V277.905H512.944L513.057 279.331C513.638 278.244 514.448 277.7 515.487 277.7C515.856 277.7 516.177 277.741 516.451 277.823L516.389 281.033ZM522.798 289.205C521.096 289.205 519.718 288.699 518.666 287.688C517.613 286.669 517.086 285.346 517.086 283.719V283.432C517.086 282.297 517.295 281.296 517.712 280.428C518.136 279.56 518.751 278.89 519.558 278.418C520.364 277.939 521.321 277.7 522.429 277.7C523.987 277.7 525.218 278.186 526.12 279.156C527.022 280.12 527.474 281.467 527.474 283.196V284.54H520.604C520.727 285.162 520.997 285.65 521.414 286.006C521.831 286.361 522.371 286.539 523.034 286.539C524.127 286.539 524.982 286.156 525.597 285.391L527.176 287.257C526.746 287.852 526.134 288.327 525.341 288.682C524.555 289.031 523.707 289.205 522.798 289.205ZM522.408 280.366C521.396 280.366 520.795 281.036 520.604 282.376H524.09V282.109C524.104 281.556 523.963 281.128 523.669 280.828C523.375 280.52 522.955 280.366 522.408 280.366ZM532.139 277.905L532.252 279.208C533.038 278.203 534.094 277.7 535.42 277.7C536.822 277.7 537.769 278.257 538.261 279.372C539.013 278.257 540.1 277.7 541.521 277.7C543.771 277.7 544.926 279.061 544.987 281.781V289H541.521V281.997C541.521 281.429 541.426 281.016 541.234 280.756C541.043 280.496 540.694 280.366 540.188 280.366C539.505 280.366 538.996 280.67 538.661 281.279L538.671 281.422V289H535.205V282.017C535.205 281.436 535.113 281.016 534.928 280.756C534.744 280.496 534.392 280.366 533.872 280.366C533.209 280.366 532.703 280.67 532.354 281.279V289H528.899V277.905H532.139ZM550.606 289H547.141V277.905H550.606V289ZM546.936 275.044C546.936 274.552 547.113 274.149 547.469 273.834C547.824 273.52 548.286 273.363 548.853 273.363C549.42 273.363 549.882 273.52 550.237 273.834C550.593 274.149 550.771 274.552 550.771 275.044C550.771 275.537 550.593 275.94 550.237 276.254C549.882 276.569 549.42 276.726 548.853 276.726C548.286 276.726 547.824 276.569 547.469 276.254C547.113 275.94 546.936 275.537 546.936 275.044ZM555.918 277.905L556.031 279.208C556.796 278.203 557.853 277.7 559.199 277.7C560.354 277.7 561.216 278.045 561.783 278.736C562.357 279.426 562.655 280.465 562.675 281.853V289H559.209V281.997C559.209 281.436 559.097 281.026 558.871 280.766C558.646 280.5 558.235 280.366 557.641 280.366C556.964 280.366 556.461 280.633 556.133 281.166V289H552.678V277.905H555.918ZM564.162 283.371C564.162 281.614 564.542 280.229 565.3 279.218C566.059 278.206 567.119 277.7 568.479 277.7C569.47 277.7 570.304 278.09 570.981 278.869V273.25H574.447V289H571.34L571.166 287.811C570.455 288.74 569.552 289.205 568.458 289.205C567.139 289.205 566.093 288.699 565.321 287.688C564.548 286.676 564.162 285.237 564.162 283.371ZM567.618 283.586C567.618 285.555 568.192 286.539 569.34 286.539C570.106 286.539 570.653 286.218 570.981 285.575V281.351C570.667 280.694 570.126 280.366 569.361 280.366C568.294 280.366 567.717 281.228 567.628 282.95L567.618 283.586ZM581.778 289.205C580.076 289.205 578.699 288.699 577.646 287.688C576.593 286.669 576.067 285.346 576.067 283.719V283.432C576.067 282.297 576.275 281.296 576.692 280.428C577.116 279.56 577.731 278.89 578.538 278.418C579.345 277.939 580.302 277.7 581.409 277.7C582.968 277.7 584.198 278.186 585.101 279.156C586.003 280.12 586.454 281.467 586.454 283.196V284.54H579.584C579.707 285.162 579.977 285.65 580.394 286.006C580.811 286.361 581.351 286.539 582.014 286.539C583.108 286.539 583.962 286.156 584.578 285.391L586.157 287.257C585.726 287.852 585.114 288.327 584.321 288.682C583.535 289.031 582.688 289.205 581.778 289.205ZM581.389 280.366C580.377 280.366 579.775 281.036 579.584 282.376H583.07V282.109C583.084 281.556 582.944 281.128 582.65 280.828C582.356 280.52 581.936 280.366 581.389 280.366ZM594.565 281.033L593.427 280.951C592.34 280.951 591.643 281.292 591.335 281.976V289H587.879V277.905H591.12L591.232 279.331C591.813 278.244 592.624 277.7 593.663 277.7C594.032 277.7 594.353 277.741 594.626 277.823L594.565 281.033Z" fill="black"/>
<path d="M81.5308 307.053H75.7271V313H72.1279V298.07H82.1152V300.849H75.7271V304.284H81.5308V307.053ZM82.792 307.35C82.792 306.243 83.0073 305.258 83.438 304.397C83.8687 303.529 84.4873 302.862 85.2939 302.397C86.1006 301.933 87.0474 301.7 88.1343 301.7C89.7954 301.7 91.1045 302.216 92.0615 303.249C93.0186 304.274 93.4971 305.672 93.4971 307.442V307.565C93.4971 309.295 93.0151 310.669 92.0513 311.688C91.0942 312.699 89.7954 313.205 88.1548 313.205C86.5757 313.205 85.3076 312.733 84.3506 311.79C83.3936 310.84 82.8774 309.555 82.8022 307.935L82.792 307.35ZM86.2476 307.565C86.2476 308.591 86.4082 309.343 86.7295 309.821C87.0508 310.3 87.5259 310.539 88.1548 310.539C89.3853 310.539 90.0142 309.592 90.0415 307.699V307.35C90.0415 305.361 89.4058 304.366 88.1343 304.366C86.979 304.366 86.3535 305.224 86.2578 306.94L86.2476 307.565ZM98.665 313H95.1992V297.25H98.665V313ZM104.448 313H100.982V297.25H104.448V313ZM106.15 307.35C106.15 306.243 106.366 305.258 106.796 304.397C107.227 303.529 107.846 302.862 108.652 302.397C109.459 301.933 110.406 301.7 111.493 301.7C113.154 301.7 114.463 302.216 115.42 303.249C116.377 304.274 116.855 305.672 116.855 307.442V307.565C116.855 309.295 116.374 310.669 115.41 311.688C114.453 312.699 113.154 313.205 111.513 313.205C109.934 313.205 108.666 312.733 107.709 311.79C106.752 310.84 106.236 309.555 106.161 307.935L106.15 307.35ZM109.606 307.565C109.606 308.591 109.767 309.343 110.088 309.821C110.409 310.3 110.884 310.539 111.513 310.539C112.744 310.539 113.373 309.592 113.4 307.699V307.35C113.4 305.361 112.764 304.366 111.493 304.366C110.337 304.366 109.712 305.224 109.616 306.94L109.606 307.565ZM127.96 308.447L129.078 301.905H132.39L129.775 313H126.853L125.018 306.417L123.172 313H120.25L117.635 301.905H120.947L122.044 308.601L123.808 301.905H126.217L127.96 308.447ZM145.474 311.8C144.743 312.737 143.755 313.205 142.511 313.205C141.294 313.205 140.371 312.853 139.742 312.149C139.12 311.438 138.809 310.419 138.809 309.093V301.905H142.265V309.114C142.265 310.064 142.726 310.539 143.649 310.539C144.442 310.539 145.006 310.255 145.341 309.688V301.905H148.817V313H145.577L145.474 311.8ZM161.019 307.535C161.019 309.257 160.629 310.635 159.85 311.667C159.078 312.692 158.032 313.205 156.712 313.205C155.694 313.205 154.856 312.833 154.2 312.087V317.266H150.745V301.905H153.975L154.077 302.931C154.74 302.11 155.612 301.7 156.692 301.7C158.059 301.7 159.122 302.206 159.881 303.218C160.64 304.223 161.019 305.607 161.019 307.371V307.535ZM157.563 307.319C157.563 305.351 156.989 304.366 155.841 304.366C155.021 304.366 154.474 304.66 154.2 305.248V309.616C154.501 310.231 155.055 310.539 155.861 310.539C156.962 310.539 157.529 309.589 157.563 307.688V307.319ZM168.361 309.883C168.361 309.589 168.207 309.353 167.899 309.175C167.592 308.998 167.007 308.813 166.146 308.622C165.285 308.43 164.574 308.181 164.013 307.873C163.453 307.559 163.025 307.179 162.731 306.735C162.438 306.291 162.291 305.781 162.291 305.207C162.291 304.188 162.711 303.351 163.552 302.695C164.393 302.032 165.493 301.7 166.854 301.7C168.316 301.7 169.492 302.032 170.381 302.695C171.27 303.358 171.714 304.229 171.714 305.31H168.248C168.248 304.421 167.78 303.977 166.843 303.977C166.481 303.977 166.177 304.079 165.931 304.284C165.685 304.482 165.562 304.732 165.562 305.033C165.562 305.34 165.712 305.59 166.013 305.781C166.313 305.973 166.792 306.13 167.448 306.253C168.111 306.376 168.692 306.523 169.191 306.694C170.859 307.268 171.693 308.297 171.693 309.78C171.693 310.792 171.242 311.616 170.34 312.251C169.444 312.887 168.282 313.205 166.854 313.205C165.903 313.205 165.056 313.034 164.311 312.692C163.565 312.351 162.984 311.886 162.567 311.298C162.15 310.71 161.942 310.091 161.942 309.442H165.172C165.186 309.955 165.356 310.331 165.685 310.57C166.013 310.802 166.433 310.918 166.946 310.918C167.417 310.918 167.77 310.823 168.002 310.631C168.241 310.44 168.361 310.19 168.361 309.883Z" fill="black"/>
</svg>
